<?xml version="1.0" encoding="UTF-8"?>
<svg width="300px" height="25px" viewBox="0 0 300 25" version="1.1" xmlns="http://www.w3.org/2000/svg" xmlns:xlink="http://www.w3.org/1999/xlink">
    <title>SAATCHIYATES Copy 2</title>
    <g id="v3---Final-Design" stroke="none" stroke-width="1" fill="none" fill-rule="evenodd">
        <g id="01-Homepage/-Desktop-Homepage" transform="translate(-40.000000, -40.000000)" fill="#000000" fill-rule="nonzero">
            <path d="M51.2482579,64.7139588 C53.5937097,64.7139588 55.5372413,64.3797661 57.0788527,63.7113807 C58.6204642,63.0429952 59.8207188,62.0621532 60.6796167,60.7688546 C61.5385145,59.4755559 61.9679634,58.0627087 61.9679634,56.5303128 C61.9679634,55.2261461 61.6458767,54.0469621 61.0017033,52.9927607 C60.35753,51.9385593 59.3279538,51.0555297 57.9129747,50.3436721 C56.4979956,49.6318144 54.1552967,48.9281078 50.8848781,48.2325522 C49.5634968,47.9608508 48.726622,47.6674133 48.3742537,47.3522397 C48.0108739,47.0479342 47.8291839,46.7055904 47.8291839,46.3252085 C47.8291839,45.8035418 48.0494142,45.3606685 48.4898746,44.9965886 C48.930335,44.6325088 49.5855199,44.4504688 50.4554292,44.4504688 C51.5125342,44.4504688 52.3411504,44.6950001 52.9412777,45.1840626 C53.541405,45.6731251 53.9350665,46.4556251 54.1222622,47.5315626 L54.1222622,47.5315626 L61.1751346,47.1240106 C60.8668123,44.6460938 59.9005523,42.8392796 58.2763545,41.7035677 C56.6521567,40.5678559 54.2929406,40 51.1987061,40 C48.6770702,40 46.6922455,40.3124566 45.2442319,40.9373698 C43.7962182,41.562283 42.7115845,42.4208594 41.9903305,43.513099 C41.2690766,44.6053386 40.9084496,45.7655036 40.9084496,46.9935939 C40.9084496,48.8628995 41.6131863,50.4007294 43.0226596,51.6070836 C44.4211215,52.8134377 46.7610674,53.7806947 50.0424975,54.5088544 C52.0465925,54.9435767 53.3239277,55.405469 53.8745032,55.8945316 C54.4250787,56.3835941 54.7003665,56.9378649 54.7003665,57.5573441 C54.7003665,58.2094274 54.4113143,58.7827174 53.83321,59.2772139 C53.2551057,59.7717105 52.4319953,60.0189587 51.3638788,60.0189587 C49.9323824,60.0189587 48.8312314,59.5353302 48.0604257,58.5680733 C47.5869307,57.9703302 47.2731027,57.1008857 47.1189415,55.9597399 L47.1189415,55.9597399 L40,56.3998961 C40.2092187,58.8126045 41.1066568,60.8014587 42.6923143,62.3664588 C44.2779718,63.9314588 47.129953,64.7139588 51.2482579,64.7139588 Z M70.2222949,64.7139588 L71.3828048,60.747625 L79.8169336,60.747625 L80.9937888,64.7139588 L88.7414188,64.7139588 L79.7352076,40.6864989 L71.6606734,40.6864989 L62.6544622,64.7139588 L70.2222949,64.7139588 Z M78.4439359,55.7894737 L72.9519451,55.7894737 L75.689439,46.8649886 L78.4439359,55.7894737 Z M96.3092514,64.7139588 L97.4697614,60.747625 L105.90389,60.747625 L107.080745,64.7139588 L114.828375,64.7139588 L105.822164,40.6864989 L97.7476299,40.6864989 L88.7414188,64.7139588 L96.3092514,64.7139588 Z M104.530892,55.7894737 L99.0389016,55.7894737 L101.776395,46.8649886 L104.530892,55.7894737 Z M130.568493,64.7139588 L130.568493,46.6196097 L138.169336,46.6196097 L138.169336,40.6864989 L115.514874,40.6864989 L115.514874,46.6196097 L123.115718,46.6196097 L123.115718,64.7139588 L130.568493,64.7139588 Z M152.701352,64.7139588 C154.851034,64.7139588 156.621521,64.4044234 158.012812,63.7853526 C159.404104,63.1662818 160.568969,62.2485364 161.507409,61.0321166 C162.445849,59.8156967 163.13331,58.3006023 163.569794,56.4868334 L163.569794,56.4868334 L157.071644,54.5318729 C156.744282,56.0415369 156.217773,57.1927914 155.492119,57.9856365 C154.766465,58.7784816 153.694352,59.1749041 152.275781,59.1749041 C150.813561,59.1749041 149.678703,58.6834488 148.871208,57.7005381 C148.063714,56.7176274 147.659966,54.9011433 147.659966,52.2510857 C147.659966,50.1114901 147.998241,48.5420912 148.674791,47.5428892 C149.569582,46.1961387 150.857209,45.5227634 152.537671,45.5227634 C153.279693,45.5227634 153.950786,45.6748159 154.550951,45.9789208 C155.151116,46.2830258 155.658529,46.7174614 156.073188,47.2822278 C156.324166,47.6189154 156.564232,48.1510991 156.793386,48.8787789 L156.793386,48.8787789 L163.34064,47.4288498 C162.500409,44.909123 161.215511,43.0410496 159.485944,41.8246298 C157.756378,40.6082099 155.38027,40 152.357621,40 C148.494741,40 145.507557,41.0616522 143.396067,43.1849565 C141.284578,45.3082608 140.228833,48.3465952 140.228833,52.2999597 C140.228833,55.2649831 140.828998,57.6978228 142.029328,59.5984789 C143.229658,61.4991349 144.656414,62.8268789 146.309595,63.5817109 C147.962777,64.3365428 150.093363,64.7139588 152.701352,64.7139588 Z M174.316951,64.7139588 L174.316951,54.9948021 L182.309794,54.9948021 L182.309794,64.7139588 L189.656751,64.7139588 L189.656751,40.6864989 L182.309794,40.6864989 L182.309794,49.0944709 L174.316951,49.0944709 L174.316951,40.6864989 L167.002288,40.6864989 L167.002288,64.7139588 L174.316951,64.7139588 Z M202.700229,64.7139588 L202.700229,40.6864989 L195.148741,40.6864989 L195.148741,64.7139588 L202.700229,64.7139588 Z M233.194551,64.7139588 L233.194551,54.6506161 L242.517162,40.6864989 L234.339433,40.6864989 L229.498217,48.7994543 L224.657002,40.6864989 L216.430206,40.6864989 L225.769173,54.6506161 L225.769173,64.7139588 L233.194551,64.7139588 Z M250.084995,64.7139588 L251.245505,60.747625 L259.679634,60.747625 L260.856489,64.7139588 L268.604119,64.7139588 L259.597908,40.6864989 L251.523374,40.6864989 L242.517162,64.7139588 L250.084995,64.7139588 Z M258.306636,55.7894737 L252.814645,55.7894737 L255.552139,46.8649886 L258.306636,55.7894737 Z M284.344237,64.7139588 L284.344237,46.6196097 L291.94508,46.6196097 L291.94508,40.6864989 L269.290618,40.6864989 L269.290618,46.6196097 L276.891461,46.6196097 L276.891461,64.7139588 L284.344237,64.7139588 Z M315.286041,64.7139588 L315.286041,59.2725422 L302.690231,59.2725422 L302.690231,54.5358874 L314.045789,54.5358874 L314.045789,49.6353346 L302.690231,49.6353346 L302.690231,45.8165091 L314.931683,45.8165091 L314.931683,40.6864989 L295.377574,40.6864989 L295.377574,64.7139588 L315.286041,64.7139588 Z M329.280295,64.7139588 C331.625746,64.7139588 333.569278,64.3797661 335.110889,63.7113807 C336.652501,63.0429952 337.852755,62.0621532 338.711653,60.7688546 C339.570551,59.4755559 340,58.0627087 340,56.5303128 C340,55.2261461 339.677913,54.0469621 339.03374,52.9927607 C338.389567,51.9385593 337.35999,51.0555297 335.945011,50.3436721 C334.530032,49.6318144 332.187333,48.9281078 328.916915,48.2325522 C327.595533,47.9608508 326.758659,47.6674133 326.40629,47.3522397 C326.04291,47.0479342 325.861221,46.7055904 325.861221,46.3252085 C325.861221,45.8035418 326.081451,45.3606685 326.521911,44.9965886 C326.962372,44.6325088 327.617556,44.4504688 328.487466,44.4504688 C329.544571,44.4504688 330.373187,44.6950001 330.973314,45.1840626 C331.573442,45.6731251 331.967103,46.4556251 332.154299,47.5315626 L332.154299,47.5315626 L339.207171,47.1240106 C338.898849,44.6460938 337.932589,42.8392796 336.308391,41.7035677 C334.684193,40.5678559 332.324977,40 329.230743,40 C326.709107,40 324.724282,40.3124566 323.276268,40.9373698 C321.828255,41.562283 320.743621,42.4208594 320.022367,43.513099 C319.301113,44.6053386 318.940486,45.7655036 318.940486,46.9935939 C318.940486,48.8628995 319.645223,50.4007294 321.054696,51.6070836 C322.453158,52.8134377 324.793104,53.7806947 328.074534,54.5088544 C330.078629,54.9435767 331.355964,55.405469 331.90654,55.8945316 C332.457115,56.3835941 332.732403,56.9378649 332.732403,57.5573441 C332.732403,58.2094274 332.443351,58.7827174 331.865247,59.2772139 C331.287142,59.7717105 330.464032,60.0189587 329.395915,60.0189587 C327.964419,60.0189587 326.863268,59.5353302 326.092462,58.5680733 C325.618967,57.9703302 325.305139,57.1008857 325.150978,55.9597399 L325.150978,55.9597399 L318.032037,56.3998961 C318.241255,58.8126045 319.138693,60.8014587 320.724351,62.3664588 C322.310008,63.9314588 325.16199,64.7139588 329.280295,64.7139588 Z" id="SAATCHIYATES-Copy-2"></path>
        </g>
    </g>
</svg>