<svg width="383" height="199" viewBox="0 0 383 199" fill="none" xmlns="http://www.w3.org/2000/svg">
<path d="M90.6293 199C109.527 199 125.186 196.309 137.608 190.927C150.029 185.545 159.699 177.647 166.62 167.234C173.54 156.82 177 145.443 177 133.104C177 122.603 174.405 113.108 169.215 104.619C164.024 96.1308 155.729 89.0206 144.328 83.2886C132.927 77.5566 114.052 71.8903 87.7015 66.2896C77.0549 64.1018 70.312 61.739 67.4729 59.2012C64.5451 56.7509 63.0812 53.9943 63.0812 50.9314C63.0812 46.7309 64.8556 43.1648 68.4045 40.2332C71.9534 37.3016 77.2323 35.8358 84.2414 35.8358C92.7586 35.8358 99.435 37.8047 104.27 41.7427C109.106 45.6807 112.277 51.9815 113.786 60.6451L170.612 57.3635C168.128 37.4109 160.342 22.8622 147.256 13.7173C134.17 4.57245 115.161 0 90.2301 0C69.9128 0 53.9207 2.51594 42.2538 7.54782C30.5868 12.5797 21.8477 19.4931 16.0365 28.2879C10.2252 37.0828 7.31955 46.4246 7.31955 56.3133C7.31955 71.3652 12.9977 83.748 24.3541 93.4617C35.6218 103.175 54.4752 110.964 80.9143 116.827C97.0617 120.328 107.353 124.047 111.789 127.985C116.226 131.923 118.444 136.386 118.444 141.374C118.444 146.625 116.115 151.241 111.457 155.223C106.799 159.204 100.167 161.195 91.5609 161.195C80.0271 161.195 71.1549 157.301 64.9444 149.513C61.1293 144.699 58.6008 137.699 57.3586 128.51L0 132.054C1.68571 151.482 8.91654 167.496 21.6925 180.098C34.4684 192.699 57.4474 199 90.6293 199Z" fill="white"/>
<path d="M309.382 199V118.585L383 7H318.423L280.194 71.8295L241.964 7H177L250.747 118.585V199H309.382Z" fill="white"/>
</svg>
